<mxfile host="app.diagrams.net" modified="2023-11-10T12:19:42.663Z" agent="Mozilla/5.0 (Macintosh; Intel Mac OS X 10_15_7) AppleWebKit/537.36 (KHTML, like Gecko) Chrome/119.0.0.0 Safari/537.36" etag="EJnlEG56DQhF0VhTmofF" version="22.1.0" type="device" pages="6">
  <diagram name="1" id="VU6Xyw8zO9BaHzgld7GC">
    <mxGraphModel dx="2727" dy="905" grid="1" gridSize="10" guides="1" tooltips="1" connect="1" arrows="1" fold="1" page="1" pageScale="1" pageWidth="1100" pageHeight="850" math="0" shadow="0">
      <root>
        <mxCell id="0" />
        <mxCell id="1" parent="0" />
        <mxCell id="X3-lKDJq25J6IW0mUv2C-3" style="edgeStyle=orthogonalEdgeStyle;rounded=0;orthogonalLoop=1;jettySize=auto;html=1;exitX=1;exitY=0.25;exitDx=0;exitDy=0;" edge="1" parent="1" source="X3-lKDJq25J6IW0mUv2C-1" target="X3-lKDJq25J6IW0mUv2C-2">
          <mxGeometry relative="1" as="geometry" />
        </mxCell>
        <mxCell id="X3-lKDJq25J6IW0mUv2C-16" style="edgeStyle=orthogonalEdgeStyle;rounded=0;orthogonalLoop=1;jettySize=auto;html=1;exitX=0;exitY=0.25;exitDx=0;exitDy=0;" edge="1" parent="1" source="X3-lKDJq25J6IW0mUv2C-1">
          <mxGeometry relative="1" as="geometry">
            <mxPoint x="-80" y="142.74193548387098" as="targetPoint" />
          </mxGeometry>
        </mxCell>
        <mxCell id="X3-lKDJq25J6IW0mUv2C-1" value="" style="whiteSpace=wrap;html=1;" vertex="1" parent="1">
          <mxGeometry x="40" y="60" width="190" height="330" as="geometry" />
        </mxCell>
        <mxCell id="X3-lKDJq25J6IW0mUv2C-2" value="Bare Metal" style="text;html=1;align=center;verticalAlign=middle;resizable=0;points=[];autosize=1;strokeColor=none;fillColor=none;" vertex="1" parent="1">
          <mxGeometry x="320" y="128" width="80" height="30" as="geometry" />
        </mxCell>
        <mxCell id="X3-lKDJq25J6IW0mUv2C-6" style="edgeStyle=orthogonalEdgeStyle;rounded=0;orthogonalLoop=1;jettySize=auto;html=1;exitX=1;exitY=0.5;exitDx=0;exitDy=0;" edge="1" parent="1" source="X3-lKDJq25J6IW0mUv2C-4" target="X3-lKDJq25J6IW0mUv2C-5">
          <mxGeometry relative="1" as="geometry" />
        </mxCell>
        <mxCell id="X3-lKDJq25J6IW0mUv2C-4" value="" style="whiteSpace=wrap;html=1;fillColor=#fa6800;strokeColor=#C73500;fontColor=#000000;" vertex="1" parent="1">
          <mxGeometry x="50" y="70" width="170" height="310" as="geometry" />
        </mxCell>
        <mxCell id="X3-lKDJq25J6IW0mUv2C-5" value="OS" style="text;html=1;align=center;verticalAlign=middle;resizable=0;points=[];autosize=1;strokeColor=none;fillColor=none;" vertex="1" parent="1">
          <mxGeometry x="340" y="209" width="40" height="30" as="geometry" />
        </mxCell>
        <mxCell id="X3-lKDJq25J6IW0mUv2C-8" style="edgeStyle=orthogonalEdgeStyle;rounded=0;orthogonalLoop=1;jettySize=auto;html=1;exitX=1;exitY=0.75;exitDx=0;exitDy=0;" edge="1" parent="1" source="X3-lKDJq25J6IW0mUv2C-7" target="X3-lKDJq25J6IW0mUv2C-9">
          <mxGeometry relative="1" as="geometry">
            <mxPoint x="349.9999999999998" y="296.9354838709678" as="targetPoint" />
          </mxGeometry>
        </mxCell>
        <mxCell id="X3-lKDJq25J6IW0mUv2C-7" value="" style="rounded=1;whiteSpace=wrap;html=1;fillColor=#647687;fontColor=#ffffff;strokeColor=#314354;" vertex="1" parent="1">
          <mxGeometry x="60" y="78" width="150" height="292" as="geometry" />
        </mxCell>
        <mxCell id="X3-lKDJq25J6IW0mUv2C-9" value="Application&lt;br&gt;Server" style="text;html=1;align=center;verticalAlign=middle;resizable=0;points=[];autosize=1;strokeColor=none;fillColor=none;" vertex="1" parent="1">
          <mxGeometry x="320" y="277" width="80" height="40" as="geometry" />
        </mxCell>
        <mxCell id="X3-lKDJq25J6IW0mUv2C-10" value="APP" style="ellipse;whiteSpace=wrap;html=1;aspect=fixed;fillColor=#b1ddf0;strokeColor=#10739e;" vertex="1" parent="1">
          <mxGeometry x="95" y="90" width="80" height="80" as="geometry" />
        </mxCell>
        <mxCell id="X3-lKDJq25J6IW0mUv2C-11" value="APP" style="ellipse;whiteSpace=wrap;html=1;aspect=fixed;fillColor=#b1ddf0;strokeColor=#10739e;" vertex="1" parent="1">
          <mxGeometry x="95" y="184" width="80" height="80" as="geometry" />
        </mxCell>
        <mxCell id="X3-lKDJq25J6IW0mUv2C-12" value="APP" style="ellipse;whiteSpace=wrap;html=1;aspect=fixed;fillColor=#b1ddf0;strokeColor=#10739e;" vertex="1" parent="1">
          <mxGeometry x="95" y="277" width="80" height="80" as="geometry" />
        </mxCell>
        <mxCell id="X3-lKDJq25J6IW0mUv2C-15" style="edgeStyle=orthogonalEdgeStyle;rounded=0;orthogonalLoop=1;jettySize=auto;html=1;exitX=0.5;exitY=0.5;exitDx=0;exitDy=0;exitPerimeter=0;entryX=0;entryY=0.5;entryDx=0;entryDy=0;" edge="1" parent="1" source="X3-lKDJq25J6IW0mUv2C-13" target="X3-lKDJq25J6IW0mUv2C-1">
          <mxGeometry relative="1" as="geometry" />
        </mxCell>
        <mxCell id="X3-lKDJq25J6IW0mUv2C-13" value="Client" style="shape=umlActor;verticalLabelPosition=bottom;verticalAlign=top;html=1;outlineConnect=0;" vertex="1" parent="1">
          <mxGeometry x="-510" y="195" width="30" height="60" as="geometry" />
        </mxCell>
        <mxCell id="X3-lKDJq25J6IW0mUv2C-14" value="Infrastructure as Code" style="text;html=1;align=center;verticalAlign=middle;resizable=0;points=[];autosize=1;strokeColor=none;fillColor=none;" vertex="1" parent="1">
          <mxGeometry x="-660" y="438" width="140" height="30" as="geometry" />
        </mxCell>
        <mxCell id="X3-lKDJq25J6IW0mUv2C-17" value="400/Mb" style="text;html=1;align=center;verticalAlign=middle;resizable=0;points=[];autosize=1;strokeColor=none;fillColor=none;" vertex="1" parent="1">
          <mxGeometry x="-140" y="128" width="60" height="30" as="geometry" />
        </mxCell>
        <mxCell id="X3-lKDJq25J6IW0mUv2C-27" style="edgeStyle=orthogonalEdgeStyle;rounded=0;orthogonalLoop=1;jettySize=auto;html=1;exitX=1;exitY=0.25;exitDx=0;exitDy=0;" edge="1" parent="1" source="X3-lKDJq25J6IW0mUv2C-28" target="X3-lKDJq25J6IW0mUv2C-29">
          <mxGeometry relative="1" as="geometry" />
        </mxCell>
        <mxCell id="X3-lKDJq25J6IW0mUv2C-28" value="" style="whiteSpace=wrap;html=1;" vertex="1" parent="1">
          <mxGeometry x="460" y="60" width="190" height="330" as="geometry" />
        </mxCell>
        <mxCell id="X3-lKDJq25J6IW0mUv2C-29" value="Bare Metal" style="text;html=1;align=center;verticalAlign=middle;resizable=0;points=[];autosize=1;strokeColor=none;fillColor=none;" vertex="1" parent="1">
          <mxGeometry x="740" y="128" width="80" height="30" as="geometry" />
        </mxCell>
        <mxCell id="X3-lKDJq25J6IW0mUv2C-30" style="edgeStyle=orthogonalEdgeStyle;rounded=0;orthogonalLoop=1;jettySize=auto;html=1;exitX=1;exitY=0.5;exitDx=0;exitDy=0;" edge="1" parent="1" source="X3-lKDJq25J6IW0mUv2C-31" target="X3-lKDJq25J6IW0mUv2C-32">
          <mxGeometry relative="1" as="geometry" />
        </mxCell>
        <mxCell id="X3-lKDJq25J6IW0mUv2C-31" value="" style="whiteSpace=wrap;html=1;fillColor=#fa6800;strokeColor=#C73500;fontColor=#000000;" vertex="1" parent="1">
          <mxGeometry x="470" y="70" width="170" height="310" as="geometry" />
        </mxCell>
        <mxCell id="X3-lKDJq25J6IW0mUv2C-32" value="OS" style="text;html=1;align=center;verticalAlign=middle;resizable=0;points=[];autosize=1;strokeColor=none;fillColor=none;" vertex="1" parent="1">
          <mxGeometry x="760" y="209" width="40" height="30" as="geometry" />
        </mxCell>
        <mxCell id="X3-lKDJq25J6IW0mUv2C-33" style="edgeStyle=orthogonalEdgeStyle;rounded=0;orthogonalLoop=1;jettySize=auto;html=1;exitX=1;exitY=0.75;exitDx=0;exitDy=0;" edge="1" parent="1" source="X3-lKDJq25J6IW0mUv2C-34" target="X3-lKDJq25J6IW0mUv2C-35">
          <mxGeometry relative="1" as="geometry">
            <mxPoint x="769.9999999999998" y="296.9354838709678" as="targetPoint" />
          </mxGeometry>
        </mxCell>
        <mxCell id="X3-lKDJq25J6IW0mUv2C-34" value="" style="rounded=1;whiteSpace=wrap;html=1;fillColor=#647687;fontColor=#ffffff;strokeColor=#314354;" vertex="1" parent="1">
          <mxGeometry x="480" y="78" width="150" height="292" as="geometry" />
        </mxCell>
        <mxCell id="X3-lKDJq25J6IW0mUv2C-35" value="Application&lt;br&gt;Server" style="text;html=1;align=center;verticalAlign=middle;resizable=0;points=[];autosize=1;strokeColor=none;fillColor=none;" vertex="1" parent="1">
          <mxGeometry x="740" y="277" width="80" height="40" as="geometry" />
        </mxCell>
        <mxCell id="X3-lKDJq25J6IW0mUv2C-36" value="APP" style="ellipse;whiteSpace=wrap;html=1;aspect=fixed;fillColor=#b1ddf0;strokeColor=#10739e;" vertex="1" parent="1">
          <mxGeometry x="515" y="90" width="80" height="80" as="geometry" />
        </mxCell>
        <mxCell id="X3-lKDJq25J6IW0mUv2C-37" value="APP" style="ellipse;whiteSpace=wrap;html=1;aspect=fixed;fillColor=#b1ddf0;strokeColor=#10739e;" vertex="1" parent="1">
          <mxGeometry x="515" y="184" width="80" height="80" as="geometry" />
        </mxCell>
        <mxCell id="X3-lKDJq25J6IW0mUv2C-38" value="APP" style="ellipse;whiteSpace=wrap;html=1;aspect=fixed;fillColor=#b1ddf0;strokeColor=#10739e;" vertex="1" parent="1">
          <mxGeometry x="515" y="277" width="80" height="80" as="geometry" />
        </mxCell>
      </root>
    </mxGraphModel>
  </diagram>
  <diagram id="XAw-TVePVo5T3SqWOJZu" name="2">
    <mxGraphModel dx="2522" dy="2252" grid="1" gridSize="10" guides="1" tooltips="1" connect="1" arrows="1" fold="1" page="1" pageScale="1" pageWidth="1100" pageHeight="850" math="0" shadow="0">
      <root>
        <mxCell id="0" />
        <mxCell id="1" parent="0" />
        <mxCell id="0MJbFvdOQxqj9_UyxDpe-1" style="edgeStyle=orthogonalEdgeStyle;rounded=0;orthogonalLoop=1;jettySize=auto;html=1;exitX=1;exitY=0.25;exitDx=0;exitDy=0;" edge="1" parent="1" source="0MJbFvdOQxqj9_UyxDpe-2" target="0MJbFvdOQxqj9_UyxDpe-3">
          <mxGeometry relative="1" as="geometry" />
        </mxCell>
        <mxCell id="0MJbFvdOQxqj9_UyxDpe-2" value="" style="whiteSpace=wrap;html=1;" vertex="1" parent="1">
          <mxGeometry x="40" y="60" width="940" height="330" as="geometry" />
        </mxCell>
        <mxCell id="0MJbFvdOQxqj9_UyxDpe-3" value="Bare Metal" style="text;html=1;align=center;verticalAlign=middle;resizable=0;points=[];autosize=1;strokeColor=none;fillColor=none;" vertex="1" parent="1">
          <mxGeometry x="1020" y="128" width="80" height="30" as="geometry" />
        </mxCell>
        <mxCell id="0MJbFvdOQxqj9_UyxDpe-4" style="edgeStyle=orthogonalEdgeStyle;rounded=0;orthogonalLoop=1;jettySize=auto;html=1;exitX=1;exitY=0.5;exitDx=0;exitDy=0;" edge="1" parent="1" source="0MJbFvdOQxqj9_UyxDpe-5" target="0MJbFvdOQxqj9_UyxDpe-6">
          <mxGeometry relative="1" as="geometry" />
        </mxCell>
        <mxCell id="0MJbFvdOQxqj9_UyxDpe-5" value="" style="whiteSpace=wrap;html=1;fillColor=#fa6800;strokeColor=#C73500;fontColor=#000000;" vertex="1" parent="1">
          <mxGeometry x="50" y="70" width="920" height="310" as="geometry" />
        </mxCell>
        <mxCell id="0MJbFvdOQxqj9_UyxDpe-6" value="OS" style="text;html=1;align=center;verticalAlign=middle;resizable=0;points=[];autosize=1;strokeColor=none;fillColor=none;" vertex="1" parent="1">
          <mxGeometry x="1040" y="210" width="40" height="30" as="geometry" />
        </mxCell>
        <mxCell id="0MJbFvdOQxqj9_UyxDpe-7" style="edgeStyle=orthogonalEdgeStyle;rounded=0;orthogonalLoop=1;jettySize=auto;html=1;exitX=1;exitY=0.75;exitDx=0;exitDy=0;" edge="1" parent="1" source="0MJbFvdOQxqj9_UyxDpe-8" target="0MJbFvdOQxqj9_UyxDpe-9">
          <mxGeometry relative="1" as="geometry">
            <mxPoint x="349.9999999999998" y="296.9354838709678" as="targetPoint" />
          </mxGeometry>
        </mxCell>
        <mxCell id="0MJbFvdOQxqj9_UyxDpe-9" value="Application&lt;br&gt;Server" style="text;html=1;align=center;verticalAlign=middle;resizable=0;points=[];autosize=1;strokeColor=none;fillColor=none;" vertex="1" parent="1">
          <mxGeometry x="1020" y="263" width="80" height="40" as="geometry" />
        </mxCell>
        <mxCell id="0MJbFvdOQxqj9_UyxDpe-15" style="edgeStyle=orthogonalEdgeStyle;rounded=0;orthogonalLoop=1;jettySize=auto;html=1;exitX=0.5;exitY=0;exitDx=0;exitDy=0;" edge="1" parent="1" source="0MJbFvdOQxqj9_UyxDpe-13" target="0MJbFvdOQxqj9_UyxDpe-16">
          <mxGeometry relative="1" as="geometry">
            <mxPoint x="140" y="20" as="targetPoint" />
          </mxGeometry>
        </mxCell>
        <mxCell id="0MJbFvdOQxqj9_UyxDpe-13" value="" style="whiteSpace=wrap;html=1;fillColor=#bac8d3;strokeColor=#23445d;" vertex="1" parent="1">
          <mxGeometry x="60" y="80" width="160" height="290" as="geometry" />
        </mxCell>
        <mxCell id="0MJbFvdOQxqj9_UyxDpe-14" value="" style="whiteSpace=wrap;html=1;fillColor=#fa6800;strokeColor=#C73500;fontColor=#000000;" vertex="1" parent="1">
          <mxGeometry x="80" y="100" width="120" height="250" as="geometry" />
        </mxCell>
        <mxCell id="0MJbFvdOQxqj9_UyxDpe-16" value="VM" style="text;html=1;align=center;verticalAlign=middle;resizable=0;points=[];autosize=1;strokeColor=none;fillColor=none;" vertex="1" parent="1">
          <mxGeometry x="120" y="-32" width="40" height="30" as="geometry" />
        </mxCell>
        <mxCell id="0MJbFvdOQxqj9_UyxDpe-8" value="" style="rounded=1;whiteSpace=wrap;html=1;fillColor=#647687;fontColor=#ffffff;strokeColor=#314354;" vertex="1" parent="1">
          <mxGeometry x="90" y="110" width="100" height="230" as="geometry" />
        </mxCell>
        <mxCell id="0MJbFvdOQxqj9_UyxDpe-10" value="APP" style="ellipse;whiteSpace=wrap;html=1;aspect=fixed;fillColor=#b1ddf0;strokeColor=#10739e;" vertex="1" parent="1">
          <mxGeometry x="120" y="130" width="42" height="42" as="geometry" />
        </mxCell>
        <mxCell id="0MJbFvdOQxqj9_UyxDpe-17" value="APP" style="ellipse;whiteSpace=wrap;html=1;aspect=fixed;fillColor=#b1ddf0;strokeColor=#10739e;" vertex="1" parent="1">
          <mxGeometry x="118" y="190" width="42" height="42" as="geometry" />
        </mxCell>
        <mxCell id="0MJbFvdOQxqj9_UyxDpe-18" value="" style="whiteSpace=wrap;html=1;fillColor=#bac8d3;strokeColor=#23445d;" vertex="1" parent="1">
          <mxGeometry x="240" y="80" width="160" height="290" as="geometry" />
        </mxCell>
        <mxCell id="0MJbFvdOQxqj9_UyxDpe-19" value="" style="whiteSpace=wrap;html=1;fillColor=#fa6800;strokeColor=#C73500;fontColor=#000000;" vertex="1" parent="1">
          <mxGeometry x="260" y="100" width="120" height="250" as="geometry" />
        </mxCell>
        <mxCell id="0MJbFvdOQxqj9_UyxDpe-20" value="" style="rounded=1;whiteSpace=wrap;html=1;fillColor=#647687;fontColor=#ffffff;strokeColor=#314354;" vertex="1" parent="1">
          <mxGeometry x="270" y="110" width="100" height="230" as="geometry" />
        </mxCell>
        <mxCell id="0MJbFvdOQxqj9_UyxDpe-21" value="APP" style="ellipse;whiteSpace=wrap;html=1;aspect=fixed;fillColor=#b1ddf0;strokeColor=#10739e;" vertex="1" parent="1">
          <mxGeometry x="300" y="130" width="42" height="42" as="geometry" />
        </mxCell>
        <mxCell id="0MJbFvdOQxqj9_UyxDpe-22" value="APP" style="ellipse;whiteSpace=wrap;html=1;aspect=fixed;fillColor=#b1ddf0;strokeColor=#10739e;" vertex="1" parent="1">
          <mxGeometry x="298" y="190" width="42" height="42" as="geometry" />
        </mxCell>
        <mxCell id="awjGSqhBTVNkHO2hZZnR-1" value="" style="whiteSpace=wrap;html=1;fillColor=#bac8d3;strokeColor=#23445d;" vertex="1" parent="1">
          <mxGeometry x="420" y="80" width="160" height="290" as="geometry" />
        </mxCell>
        <mxCell id="awjGSqhBTVNkHO2hZZnR-2" value="" style="whiteSpace=wrap;html=1;fillColor=#fa6800;strokeColor=#C73500;fontColor=#000000;" vertex="1" parent="1">
          <mxGeometry x="440" y="100" width="120" height="250" as="geometry" />
        </mxCell>
        <mxCell id="awjGSqhBTVNkHO2hZZnR-3" value="" style="rounded=1;whiteSpace=wrap;html=1;fillColor=#647687;fontColor=#ffffff;strokeColor=#314354;" vertex="1" parent="1">
          <mxGeometry x="450" y="110" width="100" height="230" as="geometry" />
        </mxCell>
        <mxCell id="awjGSqhBTVNkHO2hZZnR-4" value="APP" style="ellipse;whiteSpace=wrap;html=1;aspect=fixed;fillColor=#b1ddf0;strokeColor=#10739e;" vertex="1" parent="1">
          <mxGeometry x="480" y="130" width="42" height="42" as="geometry" />
        </mxCell>
        <mxCell id="awjGSqhBTVNkHO2hZZnR-5" value="APP" style="ellipse;whiteSpace=wrap;html=1;aspect=fixed;fillColor=#b1ddf0;strokeColor=#10739e;" vertex="1" parent="1">
          <mxGeometry x="478" y="190" width="42" height="42" as="geometry" />
        </mxCell>
        <mxCell id="7trqVQAoGsEoNAsCDFwX-2" style="edgeStyle=orthogonalEdgeStyle;rounded=0;orthogonalLoop=1;jettySize=auto;html=1;" edge="1" parent="1" source="7trqVQAoGsEoNAsCDFwX-1">
          <mxGeometry relative="1" as="geometry">
            <mxPoint x="510" y="400" as="targetPoint" />
          </mxGeometry>
        </mxCell>
        <mxCell id="7trqVQAoGsEoNAsCDFwX-26" style="edgeStyle=orthogonalEdgeStyle;rounded=0;orthogonalLoop=1;jettySize=auto;html=1;exitX=0.5;exitY=0.5;exitDx=0;exitDy=0;exitPerimeter=0;" edge="1" parent="1" source="7trqVQAoGsEoNAsCDFwX-1" target="7trqVQAoGsEoNAsCDFwX-4">
          <mxGeometry relative="1" as="geometry" />
        </mxCell>
        <mxCell id="7trqVQAoGsEoNAsCDFwX-1" value="System&lt;br&gt;Engineer" style="shape=umlActor;verticalLabelPosition=bottom;verticalAlign=top;html=1;outlineConnect=0;" vertex="1" parent="1">
          <mxGeometry x="1100" y="720" width="30" height="60" as="geometry" />
        </mxCell>
        <mxCell id="7trqVQAoGsEoNAsCDFwX-3" style="edgeStyle=orthogonalEdgeStyle;rounded=0;orthogonalLoop=1;jettySize=auto;html=1;exitX=1;exitY=0.25;exitDx=0;exitDy=0;" edge="1" parent="1" source="7trqVQAoGsEoNAsCDFwX-4" target="7trqVQAoGsEoNAsCDFwX-5">
          <mxGeometry relative="1" as="geometry" />
        </mxCell>
        <mxCell id="7trqVQAoGsEoNAsCDFwX-4" value="" style="whiteSpace=wrap;html=1;" vertex="1" parent="1">
          <mxGeometry x="1200" y="80" width="940" height="330" as="geometry" />
        </mxCell>
        <mxCell id="7trqVQAoGsEoNAsCDFwX-5" value="Bare Metal" style="text;html=1;align=center;verticalAlign=middle;resizable=0;points=[];autosize=1;strokeColor=none;fillColor=none;" vertex="1" parent="1">
          <mxGeometry x="2180" y="148" width="80" height="30" as="geometry" />
        </mxCell>
        <mxCell id="7trqVQAoGsEoNAsCDFwX-6" style="edgeStyle=orthogonalEdgeStyle;rounded=0;orthogonalLoop=1;jettySize=auto;html=1;exitX=1;exitY=0.5;exitDx=0;exitDy=0;" edge="1" parent="1" source="7trqVQAoGsEoNAsCDFwX-7" target="7trqVQAoGsEoNAsCDFwX-8">
          <mxGeometry relative="1" as="geometry" />
        </mxCell>
        <mxCell id="7trqVQAoGsEoNAsCDFwX-7" value="" style="whiteSpace=wrap;html=1;fillColor=#fa6800;strokeColor=#C73500;fontColor=#000000;" vertex="1" parent="1">
          <mxGeometry x="1210" y="90" width="920" height="310" as="geometry" />
        </mxCell>
        <mxCell id="7trqVQAoGsEoNAsCDFwX-8" value="OS" style="text;html=1;align=center;verticalAlign=middle;resizable=0;points=[];autosize=1;strokeColor=none;fillColor=none;" vertex="1" parent="1">
          <mxGeometry x="2200" y="240" width="40" height="30" as="geometry" />
        </mxCell>
        <mxCell id="7trqVQAoGsEoNAsCDFwX-9" style="edgeStyle=orthogonalEdgeStyle;rounded=0;orthogonalLoop=1;jettySize=auto;html=1;exitX=1;exitY=0.75;exitDx=0;exitDy=0;" edge="1" parent="1" source="7trqVQAoGsEoNAsCDFwX-13" target="7trqVQAoGsEoNAsCDFwX-10">
          <mxGeometry relative="1" as="geometry">
            <mxPoint x="1509.9999999999998" y="316.9354838709678" as="targetPoint" />
          </mxGeometry>
        </mxCell>
        <mxCell id="7trqVQAoGsEoNAsCDFwX-10" value="Application&lt;br&gt;Server" style="text;html=1;align=center;verticalAlign=middle;resizable=0;points=[];autosize=1;strokeColor=none;fillColor=none;" vertex="1" parent="1">
          <mxGeometry x="2180" y="297" width="80" height="40" as="geometry" />
        </mxCell>
        <mxCell id="7trqVQAoGsEoNAsCDFwX-11" value="" style="whiteSpace=wrap;html=1;fillColor=#bac8d3;strokeColor=#23445d;" vertex="1" parent="1">
          <mxGeometry x="1220" y="100" width="160" height="290" as="geometry" />
        </mxCell>
        <mxCell id="7trqVQAoGsEoNAsCDFwX-12" value="" style="whiteSpace=wrap;html=1;fillColor=#fa6800;strokeColor=#C73500;fontColor=#000000;" vertex="1" parent="1">
          <mxGeometry x="1240" y="120" width="120" height="250" as="geometry" />
        </mxCell>
        <mxCell id="7trqVQAoGsEoNAsCDFwX-13" value="" style="rounded=1;whiteSpace=wrap;html=1;fillColor=#647687;fontColor=#ffffff;strokeColor=#314354;" vertex="1" parent="1">
          <mxGeometry x="1250" y="130" width="100" height="230" as="geometry" />
        </mxCell>
        <mxCell id="7trqVQAoGsEoNAsCDFwX-14" value="APP" style="ellipse;whiteSpace=wrap;html=1;aspect=fixed;fillColor=#b1ddf0;strokeColor=#10739e;" vertex="1" parent="1">
          <mxGeometry x="1280" y="150" width="42" height="42" as="geometry" />
        </mxCell>
        <mxCell id="7trqVQAoGsEoNAsCDFwX-15" value="APP" style="ellipse;whiteSpace=wrap;html=1;aspect=fixed;fillColor=#b1ddf0;strokeColor=#10739e;" vertex="1" parent="1">
          <mxGeometry x="1278" y="210" width="42" height="42" as="geometry" />
        </mxCell>
        <mxCell id="7trqVQAoGsEoNAsCDFwX-16" value="" style="whiteSpace=wrap;html=1;fillColor=#bac8d3;strokeColor=#23445d;" vertex="1" parent="1">
          <mxGeometry x="1400" y="100" width="160" height="290" as="geometry" />
        </mxCell>
        <mxCell id="7trqVQAoGsEoNAsCDFwX-17" value="" style="whiteSpace=wrap;html=1;fillColor=#fa6800;strokeColor=#C73500;fontColor=#000000;" vertex="1" parent="1">
          <mxGeometry x="1420" y="120" width="120" height="250" as="geometry" />
        </mxCell>
        <mxCell id="7trqVQAoGsEoNAsCDFwX-18" value="" style="rounded=1;whiteSpace=wrap;html=1;fillColor=#647687;fontColor=#ffffff;strokeColor=#314354;" vertex="1" parent="1">
          <mxGeometry x="1430" y="130" width="100" height="230" as="geometry" />
        </mxCell>
        <mxCell id="7trqVQAoGsEoNAsCDFwX-19" value="APP" style="ellipse;whiteSpace=wrap;html=1;aspect=fixed;fillColor=#b1ddf0;strokeColor=#10739e;" vertex="1" parent="1">
          <mxGeometry x="1460" y="150" width="42" height="42" as="geometry" />
        </mxCell>
        <mxCell id="7trqVQAoGsEoNAsCDFwX-20" value="APP" style="ellipse;whiteSpace=wrap;html=1;aspect=fixed;fillColor=#b1ddf0;strokeColor=#10739e;" vertex="1" parent="1">
          <mxGeometry x="1458" y="210" width="42" height="42" as="geometry" />
        </mxCell>
        <mxCell id="7trqVQAoGsEoNAsCDFwX-21" value="" style="whiteSpace=wrap;html=1;fillColor=#bac8d3;strokeColor=#23445d;" vertex="1" parent="1">
          <mxGeometry x="1580" y="100" width="160" height="290" as="geometry" />
        </mxCell>
        <mxCell id="7trqVQAoGsEoNAsCDFwX-22" value="" style="whiteSpace=wrap;html=1;fillColor=#fa6800;strokeColor=#C73500;fontColor=#000000;" vertex="1" parent="1">
          <mxGeometry x="1600" y="120" width="120" height="250" as="geometry" />
        </mxCell>
        <mxCell id="7trqVQAoGsEoNAsCDFwX-23" value="" style="rounded=1;whiteSpace=wrap;html=1;fillColor=#647687;fontColor=#ffffff;strokeColor=#314354;" vertex="1" parent="1">
          <mxGeometry x="1610" y="130" width="100" height="230" as="geometry" />
        </mxCell>
        <mxCell id="7trqVQAoGsEoNAsCDFwX-24" value="APP" style="ellipse;whiteSpace=wrap;html=1;aspect=fixed;fillColor=#b1ddf0;strokeColor=#10739e;" vertex="1" parent="1">
          <mxGeometry x="1640" y="150" width="42" height="42" as="geometry" />
        </mxCell>
        <mxCell id="7trqVQAoGsEoNAsCDFwX-25" value="APP" style="ellipse;whiteSpace=wrap;html=1;aspect=fixed;fillColor=#b1ddf0;strokeColor=#10739e;" vertex="1" parent="1">
          <mxGeometry x="1638" y="210" width="42" height="42" as="geometry" />
        </mxCell>
      </root>
    </mxGraphModel>
  </diagram>
  <diagram id="gbv4--7h1PrgBEmzFU-C" name="3">
    <mxGraphModel dx="1681" dy="935" grid="1" gridSize="10" guides="1" tooltips="1" connect="1" arrows="1" fold="1" page="1" pageScale="1" pageWidth="1100" pageHeight="850" math="0" shadow="0">
      <root>
        <mxCell id="0" />
        <mxCell id="1" parent="0" />
        <mxCell id="ZAHymWfOrqDc-QcRDfe2-1" style="edgeStyle=orthogonalEdgeStyle;rounded=0;orthogonalLoop=1;jettySize=auto;html=1;exitX=1;exitY=0.25;exitDx=0;exitDy=0;" edge="1" parent="1" source="ZAHymWfOrqDc-QcRDfe2-2" target="ZAHymWfOrqDc-QcRDfe2-3">
          <mxGeometry relative="1" as="geometry" />
        </mxCell>
        <mxCell id="ZAHymWfOrqDc-QcRDfe2-2" value="" style="whiteSpace=wrap;html=1;" vertex="1" parent="1">
          <mxGeometry x="40" y="60" width="940" height="330" as="geometry" />
        </mxCell>
        <mxCell id="ZAHymWfOrqDc-QcRDfe2-3" value="Bare Metal" style="text;html=1;align=center;verticalAlign=middle;resizable=0;points=[];autosize=1;strokeColor=none;fillColor=none;" vertex="1" parent="1">
          <mxGeometry x="1020" y="128" width="80" height="30" as="geometry" />
        </mxCell>
        <mxCell id="ZAHymWfOrqDc-QcRDfe2-4" style="edgeStyle=orthogonalEdgeStyle;rounded=0;orthogonalLoop=1;jettySize=auto;html=1;exitX=1;exitY=0.5;exitDx=0;exitDy=0;" edge="1" parent="1" source="ZAHymWfOrqDc-QcRDfe2-5" target="ZAHymWfOrqDc-QcRDfe2-6">
          <mxGeometry relative="1" as="geometry" />
        </mxCell>
        <mxCell id="ZAHymWfOrqDc-QcRDfe2-5" value="" style="whiteSpace=wrap;html=1;fillColor=#fa6800;strokeColor=#C73500;fontColor=#000000;" vertex="1" parent="1">
          <mxGeometry x="50" y="70" width="920" height="310" as="geometry" />
        </mxCell>
        <mxCell id="ZAHymWfOrqDc-QcRDfe2-6" value="OS" style="text;html=1;align=center;verticalAlign=middle;resizable=0;points=[];autosize=1;strokeColor=none;fillColor=none;" vertex="1" parent="1">
          <mxGeometry x="1040" y="210" width="40" height="30" as="geometry" />
        </mxCell>
        <mxCell id="ZAHymWfOrqDc-QcRDfe2-10" value="CONTAINER ENGINE (RUN TIME)" style="whiteSpace=wrap;html=1;fillColor=#bac8d3;strokeColor=#23445d;" vertex="1" parent="1">
          <mxGeometry x="50" y="330" width="920" height="50" as="geometry" />
        </mxCell>
        <mxCell id="ZAHymWfOrqDc-QcRDfe2-72" value="C" style="ellipse;whiteSpace=wrap;html=1;aspect=fixed;fillColor=#b1ddf0;strokeColor=#10739e;" vertex="1" parent="1">
          <mxGeometry x="70" y="80" width="42" height="42" as="geometry" />
        </mxCell>
        <mxCell id="ZAHymWfOrqDc-QcRDfe2-73" value="C" style="ellipse;whiteSpace=wrap;html=1;aspect=fixed;fillColor=#b1ddf0;strokeColor=#10739e;" vertex="1" parent="1">
          <mxGeometry x="80" y="90" width="42" height="42" as="geometry" />
        </mxCell>
        <mxCell id="ZAHymWfOrqDc-QcRDfe2-74" value="C" style="ellipse;whiteSpace=wrap;html=1;aspect=fixed;fillColor=#b1ddf0;strokeColor=#10739e;" vertex="1" parent="1">
          <mxGeometry x="90" y="100" width="42" height="42" as="geometry" />
        </mxCell>
        <mxCell id="ZAHymWfOrqDc-QcRDfe2-75" value="C" style="ellipse;whiteSpace=wrap;html=1;aspect=fixed;fillColor=#b1ddf0;strokeColor=#10739e;" vertex="1" parent="1">
          <mxGeometry x="100" y="110" width="42" height="42" as="geometry" />
        </mxCell>
        <mxCell id="ZAHymWfOrqDc-QcRDfe2-76" value="C" style="ellipse;whiteSpace=wrap;html=1;aspect=fixed;fillColor=#b1ddf0;strokeColor=#10739e;" vertex="1" parent="1">
          <mxGeometry x="110" y="120" width="42" height="42" as="geometry" />
        </mxCell>
        <mxCell id="ZAHymWfOrqDc-QcRDfe2-77" value="C" style="ellipse;whiteSpace=wrap;html=1;aspect=fixed;fillColor=#b1ddf0;strokeColor=#10739e;" vertex="1" parent="1">
          <mxGeometry x="120" y="130" width="42" height="42" as="geometry" />
        </mxCell>
        <mxCell id="ZAHymWfOrqDc-QcRDfe2-78" value="C" style="ellipse;whiteSpace=wrap;html=1;aspect=fixed;fillColor=#b1ddf0;strokeColor=#10739e;" vertex="1" parent="1">
          <mxGeometry x="130" y="140" width="42" height="42" as="geometry" />
        </mxCell>
        <mxCell id="ZAHymWfOrqDc-QcRDfe2-79" value="C" style="ellipse;whiteSpace=wrap;html=1;aspect=fixed;fillColor=#b1ddf0;strokeColor=#10739e;" vertex="1" parent="1">
          <mxGeometry x="140" y="150" width="42" height="42" as="geometry" />
        </mxCell>
        <mxCell id="ZAHymWfOrqDc-QcRDfe2-80" value="C" style="ellipse;whiteSpace=wrap;html=1;aspect=fixed;fillColor=#b1ddf0;strokeColor=#10739e;" vertex="1" parent="1">
          <mxGeometry x="150" y="160" width="42" height="42" as="geometry" />
        </mxCell>
        <mxCell id="ZAHymWfOrqDc-QcRDfe2-81" value="C" style="ellipse;whiteSpace=wrap;html=1;aspect=fixed;fillColor=#b1ddf0;strokeColor=#10739e;" vertex="1" parent="1">
          <mxGeometry x="160" y="170" width="42" height="42" as="geometry" />
        </mxCell>
        <mxCell id="ZAHymWfOrqDc-QcRDfe2-82" value="C" style="ellipse;whiteSpace=wrap;html=1;aspect=fixed;fillColor=#b1ddf0;strokeColor=#10739e;" vertex="1" parent="1">
          <mxGeometry x="170" y="180" width="42" height="42" as="geometry" />
        </mxCell>
        <mxCell id="ZAHymWfOrqDc-QcRDfe2-83" value="C" style="ellipse;whiteSpace=wrap;html=1;aspect=fixed;fillColor=#b1ddf0;strokeColor=#10739e;" vertex="1" parent="1">
          <mxGeometry x="180" y="190" width="42" height="42" as="geometry" />
        </mxCell>
        <mxCell id="ZAHymWfOrqDc-QcRDfe2-84" value="C" style="ellipse;whiteSpace=wrap;html=1;aspect=fixed;fillColor=#b1ddf0;strokeColor=#10739e;" vertex="1" parent="1">
          <mxGeometry x="190" y="200" width="42" height="42" as="geometry" />
        </mxCell>
        <mxCell id="ZAHymWfOrqDc-QcRDfe2-85" value="C" style="ellipse;whiteSpace=wrap;html=1;aspect=fixed;fillColor=#b1ddf0;strokeColor=#10739e;" vertex="1" parent="1">
          <mxGeometry x="200" y="210" width="42" height="42" as="geometry" />
        </mxCell>
        <mxCell id="ZAHymWfOrqDc-QcRDfe2-86" value="C" style="ellipse;whiteSpace=wrap;html=1;aspect=fixed;fillColor=#b1ddf0;strokeColor=#10739e;" vertex="1" parent="1">
          <mxGeometry x="210" y="220" width="42" height="42" as="geometry" />
        </mxCell>
        <mxCell id="ZAHymWfOrqDc-QcRDfe2-87" value="C" style="ellipse;whiteSpace=wrap;html=1;aspect=fixed;fillColor=#b1ddf0;strokeColor=#10739e;" vertex="1" parent="1">
          <mxGeometry x="220" y="230" width="42" height="42" as="geometry" />
        </mxCell>
        <mxCell id="ZAHymWfOrqDc-QcRDfe2-88" value="C" style="ellipse;whiteSpace=wrap;html=1;aspect=fixed;fillColor=#b1ddf0;strokeColor=#10739e;" vertex="1" parent="1">
          <mxGeometry x="230" y="240" width="42" height="42" as="geometry" />
        </mxCell>
        <mxCell id="ZAHymWfOrqDc-QcRDfe2-89" value="C" style="ellipse;whiteSpace=wrap;html=1;aspect=fixed;fillColor=#b1ddf0;strokeColor=#10739e;" vertex="1" parent="1">
          <mxGeometry x="240" y="250" width="42" height="42" as="geometry" />
        </mxCell>
        <mxCell id="ZAHymWfOrqDc-QcRDfe2-90" value="C" style="ellipse;whiteSpace=wrap;html=1;aspect=fixed;fillColor=#b1ddf0;strokeColor=#10739e;" vertex="1" parent="1">
          <mxGeometry x="250" y="260" width="42" height="42" as="geometry" />
        </mxCell>
        <mxCell id="ZAHymWfOrqDc-QcRDfe2-91" value="C" style="ellipse;whiteSpace=wrap;html=1;aspect=fixed;fillColor=#b1ddf0;strokeColor=#10739e;" vertex="1" parent="1">
          <mxGeometry x="260" y="270" width="42" height="42" as="geometry" />
        </mxCell>
        <mxCell id="ZAHymWfOrqDc-QcRDfe2-92" value="C" style="ellipse;whiteSpace=wrap;html=1;aspect=fixed;fillColor=#b1ddf0;strokeColor=#10739e;" vertex="1" parent="1">
          <mxGeometry x="270" y="280" width="42" height="42" as="geometry" />
        </mxCell>
        <mxCell id="ZAHymWfOrqDc-QcRDfe2-93" value="C" style="ellipse;whiteSpace=wrap;html=1;aspect=fixed;fillColor=#b1ddf0;strokeColor=#10739e;" vertex="1" parent="1">
          <mxGeometry x="280" y="290" width="42" height="42" as="geometry" />
        </mxCell>
        <mxCell id="ZAHymWfOrqDc-QcRDfe2-94" value="C" style="ellipse;whiteSpace=wrap;html=1;aspect=fixed;fillColor=#b1ddf0;strokeColor=#10739e;" vertex="1" parent="1">
          <mxGeometry x="172" y="78" width="42" height="42" as="geometry" />
        </mxCell>
        <mxCell id="ZAHymWfOrqDc-QcRDfe2-95" value="C" style="ellipse;whiteSpace=wrap;html=1;aspect=fixed;fillColor=#b1ddf0;strokeColor=#10739e;" vertex="1" parent="1">
          <mxGeometry x="182" y="88" width="42" height="42" as="geometry" />
        </mxCell>
        <mxCell id="ZAHymWfOrqDc-QcRDfe2-96" value="C" style="ellipse;whiteSpace=wrap;html=1;aspect=fixed;fillColor=#b1ddf0;strokeColor=#10739e;" vertex="1" parent="1">
          <mxGeometry x="192" y="98" width="42" height="42" as="geometry" />
        </mxCell>
        <mxCell id="ZAHymWfOrqDc-QcRDfe2-97" value="C" style="ellipse;whiteSpace=wrap;html=1;aspect=fixed;fillColor=#b1ddf0;strokeColor=#10739e;" vertex="1" parent="1">
          <mxGeometry x="202" y="108" width="42" height="42" as="geometry" />
        </mxCell>
        <mxCell id="ZAHymWfOrqDc-QcRDfe2-98" value="C" style="ellipse;whiteSpace=wrap;html=1;aspect=fixed;fillColor=#b1ddf0;strokeColor=#10739e;" vertex="1" parent="1">
          <mxGeometry x="212" y="118" width="42" height="42" as="geometry" />
        </mxCell>
        <mxCell id="ZAHymWfOrqDc-QcRDfe2-99" value="C" style="ellipse;whiteSpace=wrap;html=1;aspect=fixed;fillColor=#b1ddf0;strokeColor=#10739e;" vertex="1" parent="1">
          <mxGeometry x="222" y="128" width="42" height="42" as="geometry" />
        </mxCell>
        <mxCell id="ZAHymWfOrqDc-QcRDfe2-100" value="C" style="ellipse;whiteSpace=wrap;html=1;aspect=fixed;fillColor=#b1ddf0;strokeColor=#10739e;" vertex="1" parent="1">
          <mxGeometry x="232" y="138" width="42" height="42" as="geometry" />
        </mxCell>
        <mxCell id="ZAHymWfOrqDc-QcRDfe2-101" value="C" style="ellipse;whiteSpace=wrap;html=1;aspect=fixed;fillColor=#b1ddf0;strokeColor=#10739e;" vertex="1" parent="1">
          <mxGeometry x="242" y="148" width="42" height="42" as="geometry" />
        </mxCell>
        <mxCell id="ZAHymWfOrqDc-QcRDfe2-102" value="C" style="ellipse;whiteSpace=wrap;html=1;aspect=fixed;fillColor=#b1ddf0;strokeColor=#10739e;" vertex="1" parent="1">
          <mxGeometry x="252" y="158" width="42" height="42" as="geometry" />
        </mxCell>
        <mxCell id="ZAHymWfOrqDc-QcRDfe2-103" value="C" style="ellipse;whiteSpace=wrap;html=1;aspect=fixed;fillColor=#b1ddf0;strokeColor=#10739e;" vertex="1" parent="1">
          <mxGeometry x="262" y="168" width="42" height="42" as="geometry" />
        </mxCell>
        <mxCell id="ZAHymWfOrqDc-QcRDfe2-104" value="C" style="ellipse;whiteSpace=wrap;html=1;aspect=fixed;fillColor=#b1ddf0;strokeColor=#10739e;" vertex="1" parent="1">
          <mxGeometry x="272" y="178" width="42" height="42" as="geometry" />
        </mxCell>
        <mxCell id="ZAHymWfOrqDc-QcRDfe2-105" value="C" style="ellipse;whiteSpace=wrap;html=1;aspect=fixed;fillColor=#b1ddf0;strokeColor=#10739e;" vertex="1" parent="1">
          <mxGeometry x="282" y="188" width="42" height="42" as="geometry" />
        </mxCell>
        <mxCell id="ZAHymWfOrqDc-QcRDfe2-106" value="C" style="ellipse;whiteSpace=wrap;html=1;aspect=fixed;fillColor=#b1ddf0;strokeColor=#10739e;" vertex="1" parent="1">
          <mxGeometry x="292" y="198" width="42" height="42" as="geometry" />
        </mxCell>
        <mxCell id="ZAHymWfOrqDc-QcRDfe2-107" value="C" style="ellipse;whiteSpace=wrap;html=1;aspect=fixed;fillColor=#b1ddf0;strokeColor=#10739e;" vertex="1" parent="1">
          <mxGeometry x="302" y="208" width="42" height="42" as="geometry" />
        </mxCell>
        <mxCell id="ZAHymWfOrqDc-QcRDfe2-108" value="C" style="ellipse;whiteSpace=wrap;html=1;aspect=fixed;fillColor=#b1ddf0;strokeColor=#10739e;" vertex="1" parent="1">
          <mxGeometry x="312" y="218" width="42" height="42" as="geometry" />
        </mxCell>
        <mxCell id="ZAHymWfOrqDc-QcRDfe2-109" value="C" style="ellipse;whiteSpace=wrap;html=1;aspect=fixed;fillColor=#b1ddf0;strokeColor=#10739e;" vertex="1" parent="1">
          <mxGeometry x="322" y="228" width="42" height="42" as="geometry" />
        </mxCell>
        <mxCell id="ZAHymWfOrqDc-QcRDfe2-110" value="C" style="ellipse;whiteSpace=wrap;html=1;aspect=fixed;fillColor=#b1ddf0;strokeColor=#10739e;" vertex="1" parent="1">
          <mxGeometry x="332" y="238" width="42" height="42" as="geometry" />
        </mxCell>
        <mxCell id="ZAHymWfOrqDc-QcRDfe2-111" value="C" style="ellipse;whiteSpace=wrap;html=1;aspect=fixed;fillColor=#b1ddf0;strokeColor=#10739e;" vertex="1" parent="1">
          <mxGeometry x="342" y="248" width="42" height="42" as="geometry" />
        </mxCell>
        <mxCell id="ZAHymWfOrqDc-QcRDfe2-112" value="C" style="ellipse;whiteSpace=wrap;html=1;aspect=fixed;fillColor=#b1ddf0;strokeColor=#10739e;" vertex="1" parent="1">
          <mxGeometry x="352" y="258" width="42" height="42" as="geometry" />
        </mxCell>
        <mxCell id="ZAHymWfOrqDc-QcRDfe2-113" value="C" style="ellipse;whiteSpace=wrap;html=1;aspect=fixed;fillColor=#b1ddf0;strokeColor=#10739e;" vertex="1" parent="1">
          <mxGeometry x="362" y="268" width="42" height="42" as="geometry" />
        </mxCell>
        <mxCell id="ZAHymWfOrqDc-QcRDfe2-114" value="C" style="ellipse;whiteSpace=wrap;html=1;aspect=fixed;fillColor=#b1ddf0;strokeColor=#10739e;" vertex="1" parent="1">
          <mxGeometry x="372" y="278" width="42" height="42" as="geometry" />
        </mxCell>
        <mxCell id="ZAHymWfOrqDc-QcRDfe2-115" value="C" style="ellipse;whiteSpace=wrap;html=1;aspect=fixed;fillColor=#b1ddf0;strokeColor=#10739e;" vertex="1" parent="1">
          <mxGeometry x="382" y="288" width="42" height="42" as="geometry" />
        </mxCell>
        <mxCell id="ZAHymWfOrqDc-QcRDfe2-117" style="edgeStyle=orthogonalEdgeStyle;rounded=0;orthogonalLoop=1;jettySize=auto;html=1;exitX=0.5;exitY=1;exitDx=0;exitDy=0;entryX=0.516;entryY=0.02;entryDx=0;entryDy=0;entryPerimeter=0;" edge="1" parent="1" source="ZAHymWfOrqDc-QcRDfe2-116" target="6oF_UPdKGupUiuxIm2jQ-1">
          <mxGeometry relative="1" as="geometry">
            <mxPoint x="413" y="570" as="targetPoint" />
          </mxGeometry>
        </mxCell>
        <mxCell id="ZAHymWfOrqDc-QcRDfe2-116" value="C" style="ellipse;whiteSpace=wrap;html=1;aspect=fixed;fillColor=#b1ddf0;strokeColor=#10739e;" vertex="1" parent="1">
          <mxGeometry x="392" y="298" width="42" height="42" as="geometry" />
        </mxCell>
        <mxCell id="6oF_UPdKGupUiuxIm2jQ-1" value="CONTAINERS ARE &lt;font style=&quot;font-size: 30px;&quot;&gt;&lt;b&gt;NOT&lt;/b&gt;&lt;/font&gt; VMs!&lt;br&gt;&lt;br&gt;&lt;br&gt;&lt;br&gt;CONTAINERS ARE &lt;font style=&quot;font-size: 24px;&quot;&gt;&lt;b&gt;PROCCESES&lt;/b&gt;&lt;/font&gt;!" style="text;html=1;align=center;verticalAlign=middle;resizable=0;points=[];autosize=1;strokeColor=none;fillColor=none;" vertex="1" parent="1">
          <mxGeometry x="264" y="445" width="290" height="120" as="geometry" />
        </mxCell>
      </root>
    </mxGraphModel>
  </diagram>
  <diagram id="pvmFikyEljOMp8Y9cLFv" name="4">
    <mxGraphModel dx="3622" dy="1402" grid="1" gridSize="10" guides="1" tooltips="1" connect="1" arrows="1" fold="1" page="1" pageScale="1" pageWidth="1100" pageHeight="850" math="0" shadow="0">
      <root>
        <mxCell id="0" />
        <mxCell id="1" parent="0" />
        <mxCell id="JhYmk9nRWDTDjvbJ0gUB-8" value="&lt;br&gt;&lt;br&gt;&lt;br&gt;&lt;br&gt;&lt;br&gt;&lt;br&gt;&lt;br&gt;&lt;br&gt;&lt;br&gt;&lt;br&gt;&lt;br&gt;&lt;br&gt;INTERNET" style="ellipse;shape=cloud;whiteSpace=wrap;html=1;" vertex="1" parent="1">
          <mxGeometry x="336.38" y="520" width="490" height="310" as="geometry" />
        </mxCell>
        <mxCell id="JhYmk9nRWDTDjvbJ0gUB-15" style="edgeStyle=orthogonalEdgeStyle;rounded=0;orthogonalLoop=1;jettySize=auto;html=1;exitX=1;exitY=0.5;exitDx=0;exitDy=0;" edge="1" parent="1" source="JhYmk9nRWDTDjvbJ0gUB-1" target="JhYmk9nRWDTDjvbJ0gUB-14">
          <mxGeometry relative="1" as="geometry" />
        </mxCell>
        <mxCell id="JhYmk9nRWDTDjvbJ0gUB-1" value="" style="rounded=1;whiteSpace=wrap;html=1;" vertex="1" parent="1">
          <mxGeometry x="120" y="80" width="890" height="420" as="geometry" />
        </mxCell>
        <mxCell id="JhYmk9nRWDTDjvbJ0gUB-3" style="edgeStyle=orthogonalEdgeStyle;rounded=0;orthogonalLoop=1;jettySize=auto;html=1;entryX=0;entryY=0.5;entryDx=0;entryDy=0;" edge="1" parent="1" source="JhYmk9nRWDTDjvbJ0gUB-2" target="JhYmk9nRWDTDjvbJ0gUB-1">
          <mxGeometry relative="1" as="geometry" />
        </mxCell>
        <mxCell id="JhYmk9nRWDTDjvbJ0gUB-2" value="DEV" style="shape=umlActor;verticalLabelPosition=bottom;verticalAlign=top;html=1;outlineConnect=0;" vertex="1" parent="1">
          <mxGeometry x="-150" y="303" width="30" height="60" as="geometry" />
        </mxCell>
        <mxCell id="JhYmk9nRWDTDjvbJ0gUB-4" value="CODEBASE" style="shape=cylinder3;whiteSpace=wrap;html=1;boundedLbl=1;backgroundOutline=1;size=15;rotation=-90;" vertex="1" parent="1">
          <mxGeometry x="65.72" y="272.47999999999996" width="258.95" height="125.03" as="geometry" />
        </mxCell>
        <mxCell id="JhYmk9nRWDTDjvbJ0gUB-11" style="edgeStyle=orthogonalEdgeStyle;rounded=0;orthogonalLoop=1;jettySize=auto;html=1;exitX=0;exitY=0;exitDx=0;exitDy=109.75;exitPerimeter=0;" edge="1" parent="1" source="JhYmk9nRWDTDjvbJ0gUB-5" target="JhYmk9nRWDTDjvbJ0gUB-9">
          <mxGeometry relative="1" as="geometry" />
        </mxCell>
        <mxCell id="JhYmk9nRWDTDjvbJ0gUB-12" style="edgeStyle=orthogonalEdgeStyle;rounded=0;orthogonalLoop=1;jettySize=auto;html=1;exitX=0;exitY=0;exitDx=0;exitDy=299.25;exitPerimeter=0;" edge="1" parent="1" source="JhYmk9nRWDTDjvbJ0gUB-5" target="JhYmk9nRWDTDjvbJ0gUB-10">
          <mxGeometry relative="1" as="geometry" />
        </mxCell>
        <mxCell id="JhYmk9nRWDTDjvbJ0gUB-5" value="CI/CD" style="shape=cylinder3;whiteSpace=wrap;html=1;boundedLbl=1;backgroundOutline=1;size=15;rotation=-90;" vertex="1" parent="1">
          <mxGeometry x="451.9" y="130.5" width="258.95" height="409" as="geometry" />
        </mxCell>
        <mxCell id="JhYmk9nRWDTDjvbJ0gUB-6" style="edgeStyle=orthogonalEdgeStyle;rounded=0;orthogonalLoop=1;jettySize=auto;html=1;exitX=0.5;exitY=1;exitDx=0;exitDy=0;exitPerimeter=0;entryX=0.5;entryY=0;entryDx=0;entryDy=0;entryPerimeter=0;" edge="1" parent="1" source="JhYmk9nRWDTDjvbJ0gUB-4" target="JhYmk9nRWDTDjvbJ0gUB-5">
          <mxGeometry relative="1" as="geometry" />
        </mxCell>
        <mxCell id="JhYmk9nRWDTDjvbJ0gUB-7" value="Dotnet&lt;br&gt;App" style="ellipse;whiteSpace=wrap;html=1;aspect=fixed;fillColor=#fa6800;fontColor=#000000;strokeColor=#C73500;" vertex="1" parent="1">
          <mxGeometry x="440" y="295" width="80" height="80" as="geometry" />
        </mxCell>
        <mxCell id="JhYmk9nRWDTDjvbJ0gUB-9" value="MAVEN" style="shape=cylinder3;whiteSpace=wrap;html=1;boundedLbl=1;backgroundOutline=1;size=15;" vertex="1" parent="1">
          <mxGeometry x="780" y="100" width="60" height="80" as="geometry" />
        </mxCell>
        <mxCell id="JhYmk9nRWDTDjvbJ0gUB-10" value="NUGET" style="shape=cylinder3;whiteSpace=wrap;html=1;boundedLbl=1;backgroundOutline=1;size=15;" vertex="1" parent="1">
          <mxGeometry x="870" y="100" width="60" height="80" as="geometry" />
        </mxCell>
        <mxCell id="JhYmk9nRWDTDjvbJ0gUB-14" value="VM&lt;br&gt;&lt;br&gt;DOCKER&lt;br&gt;&lt;br&gt;K8S&lt;br&gt;&lt;br&gt;OpenShift&lt;br&gt;&lt;br&gt;VM Vare Tanzu&lt;br&gt;&lt;br&gt;VM Vare&lt;br&gt;&lt;br&gt;AWS&lt;br&gt;&lt;br&gt;GCP&lt;br&gt;&lt;br&gt;AZURE" style="rounded=1;whiteSpace=wrap;html=1;" vertex="1" parent="1">
          <mxGeometry x="1180" y="50" width="340" height="460" as="geometry" />
        </mxCell>
      </root>
    </mxGraphModel>
  </diagram>
  <diagram id="sNVhroM6Fc2XNP1RbhZU" name="5">
    <mxGraphModel dx="1576" dy="876" grid="1" gridSize="10" guides="1" tooltips="1" connect="1" arrows="1" fold="1" page="1" pageScale="1" pageWidth="1100" pageHeight="850" math="0" shadow="0">
      <root>
        <mxCell id="0" />
        <mxCell id="1" parent="0" />
        <mxCell id="Lru0RW43vqdEmzBk7fCI-1" value="REPO" style="shape=cylinder3;whiteSpace=wrap;html=1;boundedLbl=1;backgroundOutline=1;size=15;" vertex="1" parent="1">
          <mxGeometry x="820" y="10" width="390" height="740" as="geometry" />
        </mxCell>
        <mxCell id="Lru0RW43vqdEmzBk7fCI-2" value="" style="verticalLabelPosition=bottom;html=1;verticalAlign=top;align=center;strokeColor=#C73500;fillColor=#fa6800;shape=mxgraph.azure.code_file;pointerEvents=1;fontColor=#000000;" vertex="1" parent="1">
          <mxGeometry x="70" y="290" width="90" height="20" as="geometry" />
        </mxCell>
        <mxCell id="Lru0RW43vqdEmzBk7fCI-3" value="gani.exe" style="text;html=1;align=center;verticalAlign=middle;resizable=0;points=[];autosize=1;strokeColor=none;fillColor=none;" vertex="1" parent="1">
          <mxGeometry x="15" y="18" width="70" height="30" as="geometry" />
        </mxCell>
        <mxCell id="Lru0RW43vqdEmzBk7fCI-10" style="edgeStyle=orthogonalEdgeStyle;rounded=0;orthogonalLoop=1;jettySize=auto;html=1;" edge="1" parent="1" source="Lru0RW43vqdEmzBk7fCI-6" target="Lru0RW43vqdEmzBk7fCI-9">
          <mxGeometry relative="1" as="geometry" />
        </mxCell>
        <mxCell id="Lru0RW43vqdEmzBk7fCI-6" value="" style="verticalLabelPosition=bottom;html=1;verticalAlign=top;align=center;strokeColor=#6c8ebf;fillColor=#dae8fc;shape=mxgraph.azure.code_file;pointerEvents=1;" vertex="1" parent="1">
          <mxGeometry x="70" y="320" width="90" height="70" as="geometry" />
        </mxCell>
        <mxCell id="Lru0RW43vqdEmzBk7fCI-7" value="" style="verticalLabelPosition=bottom;html=1;verticalAlign=top;align=center;strokeColor=#314354;fillColor=#647687;shape=mxgraph.azure.code_file;pointerEvents=1;fontColor=#ffffff;" vertex="1" parent="1">
          <mxGeometry x="70" y="400" width="90" height="20" as="geometry" />
        </mxCell>
        <mxCell id="Lru0RW43vqdEmzBk7fCI-8" value="gani.gn" style="text;html=1;align=center;verticalAlign=middle;resizable=0;points=[];autosize=1;strokeColor=none;fillColor=none;" vertex="1" parent="1">
          <mxGeometry x="85" y="240" width="60" height="30" as="geometry" />
        </mxCell>
        <mxCell id="Lru0RW43vqdEmzBk7fCI-9" value="LOCAL&lt;br&gt;REPO" style="shape=cylinder3;whiteSpace=wrap;html=1;boundedLbl=1;backgroundOutline=1;size=15;" vertex="1" parent="1">
          <mxGeometry x="230" y="10" width="300" height="200" as="geometry" />
        </mxCell>
        <mxCell id="Lru0RW43vqdEmzBk7fCI-14" style="edgeStyle=orthogonalEdgeStyle;rounded=0;orthogonalLoop=1;jettySize=auto;html=1;exitX=0;exitY=0.5;exitDx=0;exitDy=0;exitPerimeter=0;" edge="1" parent="1" source="Lru0RW43vqdEmzBk7fCI-11">
          <mxGeometry relative="1" as="geometry">
            <mxPoint x="190.00000000000023" y="70.25" as="targetPoint" />
          </mxGeometry>
        </mxCell>
        <mxCell id="Lru0RW43vqdEmzBk7fCI-79" style="edgeStyle=orthogonalEdgeStyle;rounded=0;orthogonalLoop=1;jettySize=auto;html=1;exitX=1;exitY=0.5;exitDx=0;exitDy=0;exitPerimeter=0;" edge="1" parent="1" source="Lru0RW43vqdEmzBk7fCI-11" target="Lru0RW43vqdEmzBk7fCI-76">
          <mxGeometry relative="1" as="geometry" />
        </mxCell>
        <mxCell id="Lru0RW43vqdEmzBk7fCI-11" value="" style="verticalLabelPosition=bottom;html=1;verticalAlign=top;align=center;strokeColor=#C73500;fillColor=#fa6800;shape=mxgraph.azure.code_file;pointerEvents=1;fontColor=#000000;" vertex="1" parent="1">
          <mxGeometry x="240" y="60" width="90" height="20" as="geometry" />
        </mxCell>
        <mxCell id="Lru0RW43vqdEmzBk7fCI-17" style="edgeStyle=orthogonalEdgeStyle;rounded=0;orthogonalLoop=1;jettySize=auto;html=1;exitX=0;exitY=0.5;exitDx=0;exitDy=0;exitPerimeter=0;" edge="1" parent="1" source="Lru0RW43vqdEmzBk7fCI-12">
          <mxGeometry relative="1" as="geometry">
            <mxPoint x="190.00000000000023" y="125.25" as="targetPoint" />
          </mxGeometry>
        </mxCell>
        <mxCell id="Lru0RW43vqdEmzBk7fCI-12" value="" style="verticalLabelPosition=bottom;html=1;verticalAlign=top;align=center;strokeColor=#6c8ebf;fillColor=#dae8fc;shape=mxgraph.azure.code_file;pointerEvents=1;" vertex="1" parent="1">
          <mxGeometry x="240" y="90" width="90" height="70" as="geometry" />
        </mxCell>
        <mxCell id="Lru0RW43vqdEmzBk7fCI-19" style="edgeStyle=orthogonalEdgeStyle;rounded=0;orthogonalLoop=1;jettySize=auto;html=1;exitX=0;exitY=0.5;exitDx=0;exitDy=0;exitPerimeter=0;" edge="1" parent="1" source="Lru0RW43vqdEmzBk7fCI-13">
          <mxGeometry relative="1" as="geometry">
            <mxPoint x="190.00000000000023" y="180.25" as="targetPoint" />
          </mxGeometry>
        </mxCell>
        <mxCell id="Lru0RW43vqdEmzBk7fCI-13" value="" style="verticalLabelPosition=bottom;html=1;verticalAlign=top;align=center;strokeColor=#314354;fillColor=#647687;shape=mxgraph.azure.code_file;pointerEvents=1;fontColor=#ffffff;" vertex="1" parent="1">
          <mxGeometry x="240" y="170" width="90" height="20" as="geometry" />
        </mxCell>
        <mxCell id="Lru0RW43vqdEmzBk7fCI-15" value="1" style="text;html=1;align=center;verticalAlign=middle;resizable=0;points=[];autosize=1;strokeColor=none;fillColor=none;" vertex="1" parent="1">
          <mxGeometry x="160" y="55" width="30" height="30" as="geometry" />
        </mxCell>
        <mxCell id="Lru0RW43vqdEmzBk7fCI-18" value="2" style="text;html=1;align=center;verticalAlign=middle;resizable=0;points=[];autosize=1;strokeColor=none;fillColor=none;" vertex="1" parent="1">
          <mxGeometry x="160" y="110" width="30" height="30" as="geometry" />
        </mxCell>
        <mxCell id="Lru0RW43vqdEmzBk7fCI-20" value="3" style="text;html=1;align=center;verticalAlign=middle;resizable=0;points=[];autosize=1;strokeColor=none;fillColor=none;" vertex="1" parent="1">
          <mxGeometry x="160" y="165" width="30" height="30" as="geometry" />
        </mxCell>
        <mxCell id="Lru0RW43vqdEmzBk7fCI-21" value="" style="verticalLabelPosition=bottom;html=1;verticalAlign=top;align=center;strokeColor=#C73500;fillColor=#fa6800;shape=mxgraph.azure.code_file;pointerEvents=1;fontColor=#000000;" vertex="1" parent="1">
          <mxGeometry x="70" y="500" width="90" height="20" as="geometry" />
        </mxCell>
        <mxCell id="Lru0RW43vqdEmzBk7fCI-22" value="" style="verticalLabelPosition=bottom;html=1;verticalAlign=top;align=center;strokeColor=#d6b656;fillColor=#fff2cc;shape=mxgraph.azure.code_file;pointerEvents=1;" vertex="1" parent="1">
          <mxGeometry x="70" y="530" width="90" height="70" as="geometry" />
        </mxCell>
        <mxCell id="Lru0RW43vqdEmzBk7fCI-23" value="" style="verticalLabelPosition=bottom;html=1;verticalAlign=top;align=center;strokeColor=#314354;fillColor=#647687;shape=mxgraph.azure.code_file;pointerEvents=1;fontColor=#ffffff;" vertex="1" parent="1">
          <mxGeometry x="70" y="610" width="90" height="20" as="geometry" />
        </mxCell>
        <mxCell id="Lru0RW43vqdEmzBk7fCI-24" value="Alperen.gn" style="text;html=1;align=center;verticalAlign=middle;resizable=0;points=[];autosize=1;strokeColor=none;fillColor=none;" vertex="1" parent="1">
          <mxGeometry x="70" y="460" width="80" height="30" as="geometry" />
        </mxCell>
        <mxCell id="Lru0RW43vqdEmzBk7fCI-25" value="LOCAL&lt;br&gt;REPO" style="shape=cylinder3;whiteSpace=wrap;html=1;boundedLbl=1;backgroundOutline=1;size=15;" vertex="1" parent="1">
          <mxGeometry x="230" y="720" width="300" height="200" as="geometry" />
        </mxCell>
        <mxCell id="Lru0RW43vqdEmzBk7fCI-26" style="edgeStyle=orthogonalEdgeStyle;rounded=0;orthogonalLoop=1;jettySize=auto;html=1;exitX=0;exitY=0.5;exitDx=0;exitDy=0;exitPerimeter=0;" edge="1" parent="1" source="Lru0RW43vqdEmzBk7fCI-27">
          <mxGeometry relative="1" as="geometry">
            <mxPoint x="190.00000000000023" y="780.25" as="targetPoint" />
          </mxGeometry>
        </mxCell>
        <mxCell id="Lru0RW43vqdEmzBk7fCI-27" value="" style="verticalLabelPosition=bottom;html=1;verticalAlign=top;align=center;strokeColor=#C73500;fillColor=#fa6800;shape=mxgraph.azure.code_file;pointerEvents=1;fontColor=#000000;" vertex="1" parent="1">
          <mxGeometry x="240" y="770" width="90" height="20" as="geometry" />
        </mxCell>
        <mxCell id="Lru0RW43vqdEmzBk7fCI-28" style="edgeStyle=orthogonalEdgeStyle;rounded=0;orthogonalLoop=1;jettySize=auto;html=1;exitX=0;exitY=0.5;exitDx=0;exitDy=0;exitPerimeter=0;" edge="1" parent="1" source="Lru0RW43vqdEmzBk7fCI-29">
          <mxGeometry relative="1" as="geometry">
            <mxPoint x="190.00000000000023" y="835.25" as="targetPoint" />
          </mxGeometry>
        </mxCell>
        <mxCell id="Lru0RW43vqdEmzBk7fCI-29" value="" style="verticalLabelPosition=bottom;html=1;verticalAlign=top;align=center;strokeColor=#d6b656;fillColor=#fff2cc;shape=mxgraph.azure.code_file;pointerEvents=1;" vertex="1" parent="1">
          <mxGeometry x="240" y="800" width="90" height="70" as="geometry" />
        </mxCell>
        <mxCell id="Lru0RW43vqdEmzBk7fCI-30" style="edgeStyle=orthogonalEdgeStyle;rounded=0;orthogonalLoop=1;jettySize=auto;html=1;exitX=0;exitY=0.5;exitDx=0;exitDy=0;exitPerimeter=0;" edge="1" parent="1" source="Lru0RW43vqdEmzBk7fCI-31">
          <mxGeometry relative="1" as="geometry">
            <mxPoint x="190.00000000000023" y="890.25" as="targetPoint" />
          </mxGeometry>
        </mxCell>
        <mxCell id="Lru0RW43vqdEmzBk7fCI-31" value="" style="verticalLabelPosition=bottom;html=1;verticalAlign=top;align=center;strokeColor=#314354;fillColor=#647687;shape=mxgraph.azure.code_file;pointerEvents=1;fontColor=#ffffff;" vertex="1" parent="1">
          <mxGeometry x="240" y="880" width="90" height="20" as="geometry" />
        </mxCell>
        <mxCell id="Lru0RW43vqdEmzBk7fCI-32" value="1" style="text;html=1;align=center;verticalAlign=middle;resizable=0;points=[];autosize=1;strokeColor=none;fillColor=none;" vertex="1" parent="1">
          <mxGeometry x="160" y="765" width="30" height="30" as="geometry" />
        </mxCell>
        <mxCell id="Lru0RW43vqdEmzBk7fCI-33" value="4" style="text;html=1;align=center;verticalAlign=middle;resizable=0;points=[];autosize=1;strokeColor=none;fillColor=none;" vertex="1" parent="1">
          <mxGeometry x="160" y="820" width="30" height="30" as="geometry" />
        </mxCell>
        <mxCell id="Lru0RW43vqdEmzBk7fCI-34" value="3" style="text;html=1;align=center;verticalAlign=middle;resizable=0;points=[];autosize=1;strokeColor=none;fillColor=none;" vertex="1" parent="1">
          <mxGeometry x="160" y="875" width="30" height="30" as="geometry" />
        </mxCell>
        <mxCell id="Lru0RW43vqdEmzBk7fCI-35" style="edgeStyle=orthogonalEdgeStyle;rounded=0;orthogonalLoop=1;jettySize=auto;html=1;entryX=0.5;entryY=0;entryDx=0;entryDy=0;entryPerimeter=0;" edge="1" parent="1" source="Lru0RW43vqdEmzBk7fCI-22" target="Lru0RW43vqdEmzBk7fCI-25">
          <mxGeometry relative="1" as="geometry" />
        </mxCell>
        <mxCell id="Lru0RW43vqdEmzBk7fCI-36" value="" style="endArrow=none;html=1;rounded=0;" edge="1" parent="1">
          <mxGeometry width="50" height="50" relative="1" as="geometry">
            <mxPoint y="440" as="sourcePoint" />
            <mxPoint x="750" y="440" as="targetPoint" />
          </mxGeometry>
        </mxCell>
        <mxCell id="Lru0RW43vqdEmzBk7fCI-37" style="edgeStyle=orthogonalEdgeStyle;rounded=0;orthogonalLoop=1;jettySize=auto;html=1;exitX=0;exitY=0.5;exitDx=0;exitDy=0;exitPerimeter=0;" edge="1" parent="1" source="Lru0RW43vqdEmzBk7fCI-38">
          <mxGeometry relative="1" as="geometry">
            <mxPoint x="830.0000000000002" y="115.25" as="targetPoint" />
          </mxGeometry>
        </mxCell>
        <mxCell id="Lru0RW43vqdEmzBk7fCI-38" value="" style="verticalLabelPosition=bottom;html=1;verticalAlign=top;align=center;strokeColor=#C73500;fillColor=#fa6800;shape=mxgraph.azure.code_file;pointerEvents=1;fontColor=#000000;" vertex="1" parent="1">
          <mxGeometry x="880" y="105" width="90" height="20" as="geometry" />
        </mxCell>
        <mxCell id="Lru0RW43vqdEmzBk7fCI-39" style="edgeStyle=orthogonalEdgeStyle;rounded=0;orthogonalLoop=1;jettySize=auto;html=1;exitX=0;exitY=0.5;exitDx=0;exitDy=0;exitPerimeter=0;" edge="1" parent="1" source="Lru0RW43vqdEmzBk7fCI-40">
          <mxGeometry relative="1" as="geometry">
            <mxPoint x="830.0000000000002" y="170.25" as="targetPoint" />
          </mxGeometry>
        </mxCell>
        <mxCell id="Lru0RW43vqdEmzBk7fCI-40" value="" style="verticalLabelPosition=bottom;html=1;verticalAlign=top;align=center;strokeColor=#6c8ebf;fillColor=#dae8fc;shape=mxgraph.azure.code_file;pointerEvents=1;" vertex="1" parent="1">
          <mxGeometry x="880" y="135" width="90" height="70" as="geometry" />
        </mxCell>
        <mxCell id="Lru0RW43vqdEmzBk7fCI-41" style="edgeStyle=orthogonalEdgeStyle;rounded=0;orthogonalLoop=1;jettySize=auto;html=1;exitX=0;exitY=0.5;exitDx=0;exitDy=0;exitPerimeter=0;" edge="1" parent="1" source="Lru0RW43vqdEmzBk7fCI-42">
          <mxGeometry relative="1" as="geometry">
            <mxPoint x="830.0000000000002" y="225.25" as="targetPoint" />
          </mxGeometry>
        </mxCell>
        <mxCell id="Lru0RW43vqdEmzBk7fCI-42" value="" style="verticalLabelPosition=bottom;html=1;verticalAlign=top;align=center;strokeColor=#314354;fillColor=#647687;shape=mxgraph.azure.code_file;pointerEvents=1;fontColor=#ffffff;" vertex="1" parent="1">
          <mxGeometry x="880" y="215" width="90" height="20" as="geometry" />
        </mxCell>
        <mxCell id="Lru0RW43vqdEmzBk7fCI-43" value="1" style="text;html=1;align=center;verticalAlign=middle;resizable=0;points=[];autosize=1;strokeColor=none;fillColor=none;" vertex="1" parent="1">
          <mxGeometry x="800" y="100" width="30" height="30" as="geometry" />
        </mxCell>
        <mxCell id="Lru0RW43vqdEmzBk7fCI-44" value="2" style="text;html=1;align=center;verticalAlign=middle;resizable=0;points=[];autosize=1;strokeColor=none;fillColor=none;" vertex="1" parent="1">
          <mxGeometry x="800" y="155" width="30" height="30" as="geometry" />
        </mxCell>
        <mxCell id="Lru0RW43vqdEmzBk7fCI-45" value="3" style="text;html=1;align=center;verticalAlign=middle;resizable=0;points=[];autosize=1;strokeColor=none;fillColor=none;" vertex="1" parent="1">
          <mxGeometry x="800" y="210" width="30" height="30" as="geometry" />
        </mxCell>
        <mxCell id="Lru0RW43vqdEmzBk7fCI-56" style="edgeStyle=orthogonalEdgeStyle;rounded=0;orthogonalLoop=1;jettySize=auto;html=1;exitX=1;exitY=0.5;exitDx=0;exitDy=0;exitPerimeter=0;" edge="1" parent="1" source="Lru0RW43vqdEmzBk7fCI-47" target="Lru0RW43vqdEmzBk7fCI-52">
          <mxGeometry relative="1" as="geometry" />
        </mxCell>
        <mxCell id="Lru0RW43vqdEmzBk7fCI-47" value="" style="verticalLabelPosition=bottom;html=1;verticalAlign=top;align=center;strokeColor=#C73500;fillColor=#fa6800;shape=mxgraph.azure.code_file;pointerEvents=1;fontColor=#000000;" vertex="1" parent="1">
          <mxGeometry x="1330" y="109" width="90" height="20" as="geometry" />
        </mxCell>
        <mxCell id="Lru0RW43vqdEmzBk7fCI-49" value="" style="verticalLabelPosition=bottom;html=1;verticalAlign=top;align=center;strokeColor=#d6b656;fillColor=#fff2cc;shape=mxgraph.azure.code_file;pointerEvents=1;" vertex="1" parent="1">
          <mxGeometry x="1070" y="134" width="90" height="70" as="geometry" />
        </mxCell>
        <mxCell id="Lru0RW43vqdEmzBk7fCI-60" style="edgeStyle=orthogonalEdgeStyle;rounded=0;orthogonalLoop=1;jettySize=auto;html=1;exitX=1;exitY=0.5;exitDx=0;exitDy=0;exitPerimeter=0;" edge="1" parent="1" source="Lru0RW43vqdEmzBk7fCI-51" target="Lru0RW43vqdEmzBk7fCI-59">
          <mxGeometry relative="1" as="geometry" />
        </mxCell>
        <mxCell id="Lru0RW43vqdEmzBk7fCI-51" value="" style="verticalLabelPosition=bottom;html=1;verticalAlign=top;align=center;strokeColor=#314354;fillColor=#647687;shape=mxgraph.azure.code_file;pointerEvents=1;fontColor=#ffffff;" vertex="1" parent="1">
          <mxGeometry x="1350" y="204" width="90" height="20" as="geometry" />
        </mxCell>
        <mxCell id="Lru0RW43vqdEmzBk7fCI-52" value="1" style="text;html=1;align=center;verticalAlign=middle;resizable=0;points=[];autosize=1;strokeColor=none;fillColor=none;" vertex="1" parent="1">
          <mxGeometry x="1260" y="99" width="30" height="30" as="geometry" />
        </mxCell>
        <mxCell id="Lru0RW43vqdEmzBk7fCI-57" value="4" style="text;html=1;align=center;verticalAlign=middle;resizable=0;points=[];autosize=1;strokeColor=none;fillColor=none;" vertex="1" parent="1">
          <mxGeometry x="1260" y="159" width="30" height="30" as="geometry" />
        </mxCell>
        <mxCell id="Lru0RW43vqdEmzBk7fCI-58" style="edgeStyle=orthogonalEdgeStyle;rounded=0;orthogonalLoop=1;jettySize=auto;html=1;exitX=1;exitY=0.5;exitDx=0;exitDy=0;exitPerimeter=0;entryX=0;entryY=0.342;entryDx=0;entryDy=0;entryPerimeter=0;" edge="1" parent="1" source="Lru0RW43vqdEmzBk7fCI-49" target="Lru0RW43vqdEmzBk7fCI-57">
          <mxGeometry relative="1" as="geometry" />
        </mxCell>
        <mxCell id="Lru0RW43vqdEmzBk7fCI-59" value="3" style="text;html=1;align=center;verticalAlign=middle;resizable=0;points=[];autosize=1;strokeColor=none;fillColor=none;" vertex="1" parent="1">
          <mxGeometry x="1260" y="209" width="30" height="30" as="geometry" />
        </mxCell>
        <mxCell id="Lru0RW43vqdEmzBk7fCI-62" style="edgeStyle=orthogonalEdgeStyle;rounded=0;orthogonalLoop=1;jettySize=auto;html=1;entryX=-0.075;entryY=0.637;entryDx=0;entryDy=0;entryPerimeter=0;" edge="1" parent="1" source="Lru0RW43vqdEmzBk7fCI-61" target="Lru0RW43vqdEmzBk7fCI-63">
          <mxGeometry relative="1" as="geometry">
            <mxPoint x="950" y="373" as="targetPoint" />
            <Array as="points">
              <mxPoint x="960" y="465" />
              <mxPoint x="960" y="373" />
              <mxPoint x="1013" y="373" />
            </Array>
          </mxGeometry>
        </mxCell>
        <mxCell id="Lru0RW43vqdEmzBk7fCI-66" style="edgeStyle=orthogonalEdgeStyle;rounded=0;orthogonalLoop=1;jettySize=auto;html=1;" edge="1" parent="1" source="Lru0RW43vqdEmzBk7fCI-61" target="Lru0RW43vqdEmzBk7fCI-64">
          <mxGeometry relative="1" as="geometry" />
        </mxCell>
        <mxCell id="Lru0RW43vqdEmzBk7fCI-61" value="alperen.gn" style="text;html=1;align=center;verticalAlign=middle;resizable=0;points=[];autosize=1;strokeColor=none;fillColor=none;" vertex="1" parent="1">
          <mxGeometry x="820" y="450" width="80" height="30" as="geometry" />
        </mxCell>
        <mxCell id="Lru0RW43vqdEmzBk7fCI-63" value="1" style="text;html=1;align=center;verticalAlign=middle;resizable=0;points=[];autosize=1;strokeColor=none;fillColor=none;" vertex="1" parent="1">
          <mxGeometry x="1015" y="370" width="30" height="30" as="geometry" />
        </mxCell>
        <mxCell id="Lru0RW43vqdEmzBk7fCI-64" value="4" style="text;html=1;align=center;verticalAlign=middle;resizable=0;points=[];autosize=1;strokeColor=none;fillColor=none;" vertex="1" parent="1">
          <mxGeometry x="1015" y="440" width="30" height="30" as="geometry" />
        </mxCell>
        <mxCell id="Lru0RW43vqdEmzBk7fCI-65" value="3" style="text;html=1;align=center;verticalAlign=middle;resizable=0;points=[];autosize=1;strokeColor=none;fillColor=none;" vertex="1" parent="1">
          <mxGeometry x="1015" y="510" width="30" height="30" as="geometry" />
        </mxCell>
        <mxCell id="Lru0RW43vqdEmzBk7fCI-67" style="edgeStyle=orthogonalEdgeStyle;rounded=0;orthogonalLoop=1;jettySize=auto;html=1;entryX=-0.013;entryY=0.654;entryDx=0;entryDy=0;entryPerimeter=0;" edge="1" parent="1" source="Lru0RW43vqdEmzBk7fCI-61" target="Lru0RW43vqdEmzBk7fCI-65">
          <mxGeometry relative="1" as="geometry" />
        </mxCell>
        <mxCell id="Lru0RW43vqdEmzBk7fCI-68" style="edgeStyle=orthogonalEdgeStyle;rounded=0;orthogonalLoop=1;jettySize=auto;html=1;entryX=-0.075;entryY=0.637;entryDx=0;entryDy=0;entryPerimeter=0;" edge="1" parent="1" source="Lru0RW43vqdEmzBk7fCI-70" target="Lru0RW43vqdEmzBk7fCI-71">
          <mxGeometry relative="1" as="geometry">
            <mxPoint x="950" y="563" as="targetPoint" />
            <Array as="points">
              <mxPoint x="960" y="655" />
              <mxPoint x="960" y="563" />
              <mxPoint x="1013" y="563" />
            </Array>
          </mxGeometry>
        </mxCell>
        <mxCell id="Lru0RW43vqdEmzBk7fCI-69" style="edgeStyle=orthogonalEdgeStyle;rounded=0;orthogonalLoop=1;jettySize=auto;html=1;" edge="1" parent="1" source="Lru0RW43vqdEmzBk7fCI-70" target="Lru0RW43vqdEmzBk7fCI-72">
          <mxGeometry relative="1" as="geometry" />
        </mxCell>
        <mxCell id="Lru0RW43vqdEmzBk7fCI-70" value="gani.gn" style="text;html=1;align=center;verticalAlign=middle;resizable=0;points=[];autosize=1;strokeColor=none;fillColor=none;" vertex="1" parent="1">
          <mxGeometry x="830" y="640" width="60" height="30" as="geometry" />
        </mxCell>
        <mxCell id="Lru0RW43vqdEmzBk7fCI-71" value="1" style="text;html=1;align=center;verticalAlign=middle;resizable=0;points=[];autosize=1;strokeColor=none;fillColor=none;" vertex="1" parent="1">
          <mxGeometry x="1015" y="560" width="30" height="30" as="geometry" />
        </mxCell>
        <mxCell id="Lru0RW43vqdEmzBk7fCI-72" value="2" style="text;html=1;align=center;verticalAlign=middle;resizable=0;points=[];autosize=1;strokeColor=none;fillColor=none;" vertex="1" parent="1">
          <mxGeometry x="1015" y="630" width="30" height="30" as="geometry" />
        </mxCell>
        <mxCell id="Lru0RW43vqdEmzBk7fCI-73" value="3" style="text;html=1;align=center;verticalAlign=middle;resizable=0;points=[];autosize=1;strokeColor=none;fillColor=none;" vertex="1" parent="1">
          <mxGeometry x="1015" y="700" width="30" height="30" as="geometry" />
        </mxCell>
        <mxCell id="Lru0RW43vqdEmzBk7fCI-74" style="edgeStyle=orthogonalEdgeStyle;rounded=0;orthogonalLoop=1;jettySize=auto;html=1;entryX=-0.013;entryY=0.654;entryDx=0;entryDy=0;entryPerimeter=0;" edge="1" parent="1" source="Lru0RW43vqdEmzBk7fCI-70" target="Lru0RW43vqdEmzBk7fCI-73">
          <mxGeometry relative="1" as="geometry" />
        </mxCell>
        <mxCell id="Lru0RW43vqdEmzBk7fCI-75" value="" style="verticalLabelPosition=bottom;html=1;verticalAlign=top;align=center;strokeColor=#d6b656;fillColor=#fff2cc;shape=mxgraph.azure.code_file;pointerEvents=1;" vertex="1" parent="1">
          <mxGeometry x="430" y="89" width="90" height="70" as="geometry" />
        </mxCell>
        <mxCell id="Lru0RW43vqdEmzBk7fCI-76" value="" style="verticalLabelPosition=bottom;html=1;verticalAlign=top;align=center;strokeColor=#C73500;fillColor=#fa6800;shape=mxgraph.azure.code_file;pointerEvents=1;fontColor=#000000;" vertex="1" parent="1">
          <mxGeometry x="410" y="290" width="90" height="20" as="geometry" />
        </mxCell>
        <mxCell id="Lru0RW43vqdEmzBk7fCI-78" value="" style="verticalLabelPosition=bottom;html=1;verticalAlign=top;align=center;strokeColor=#314354;fillColor=#647687;shape=mxgraph.azure.code_file;pointerEvents=1;fontColor=#ffffff;" vertex="1" parent="1">
          <mxGeometry x="410" y="400" width="90" height="20" as="geometry" />
        </mxCell>
        <mxCell id="Lru0RW43vqdEmzBk7fCI-80" style="edgeStyle=orthogonalEdgeStyle;rounded=0;orthogonalLoop=1;jettySize=auto;html=1;exitX=1;exitY=0.5;exitDx=0;exitDy=0;exitPerimeter=0;entryX=-0.004;entryY=0.731;entryDx=0;entryDy=0;entryPerimeter=0;" edge="1" parent="1" source="Lru0RW43vqdEmzBk7fCI-13" target="Lru0RW43vqdEmzBk7fCI-78">
          <mxGeometry relative="1" as="geometry" />
        </mxCell>
        <mxCell id="Lru0RW43vqdEmzBk7fCI-81" value="" style="verticalLabelPosition=bottom;html=1;verticalAlign=top;align=center;strokeColor=#d6b656;fillColor=#fff2cc;shape=mxgraph.azure.code_file;pointerEvents=1;" vertex="1" parent="1">
          <mxGeometry x="410" y="320" width="90" height="70" as="geometry" />
        </mxCell>
        <mxCell id="Lru0RW43vqdEmzBk7fCI-82" style="edgeStyle=orthogonalEdgeStyle;rounded=0;orthogonalLoop=1;jettySize=auto;html=1;entryX=1.003;entryY=0.602;entryDx=0;entryDy=0;entryPerimeter=0;" edge="1" parent="1" source="Lru0RW43vqdEmzBk7fCI-75" target="Lru0RW43vqdEmzBk7fCI-81">
          <mxGeometry relative="1" as="geometry" />
        </mxCell>
      </root>
    </mxGraphModel>
  </diagram>
  <diagram id="_2exflihSKhVVL2q0Sky" name="Page-6">
    <mxGraphModel dx="2522" dy="1402" grid="1" gridSize="10" guides="1" tooltips="1" connect="1" arrows="1" fold="1" page="1" pageScale="1" pageWidth="1100" pageHeight="850" math="0" shadow="0">
      <root>
        <mxCell id="0" />
        <mxCell id="1" parent="0" />
        <mxCell id="xH8Z5W8Rp70OfDtmoAb9-1" value="" style="whiteSpace=wrap;html=1;fillColor=#e3c800;fontColor=#000000;strokeColor=#B09500;" vertex="1" parent="1">
          <mxGeometry x="40" y="710" width="1010" height="90" as="geometry" />
        </mxCell>
        <mxCell id="xH8Z5W8Rp70OfDtmoAb9-2" value="" style="whiteSpace=wrap;html=1;aspect=fixed;fillColor=#f0a30a;fontColor=#000000;strokeColor=#BD7000;" vertex="1" parent="1">
          <mxGeometry x="200" y="620" width="80" height="80" as="geometry" />
        </mxCell>
      </root>
    </mxGraphModel>
  </diagram>
</mxfile>
